<svg width="817" height="736" viewBox="0 0 817 736" fill="none" xmlns="http://www.w3.org/2000/svg">
<g filter="url(#filter0_f_31540_12242)">
<rect width="112.607" height="112.607" transform="matrix(0.86414 -0.503252 0.86414 0.503252 311.127 367.796)" fill="#FF941A"/>
</g>
<path d="M344.369 353.517C337.905 350.577 328.681 350.884 322.795 354.436C316.349 358.326 316.349 364.63 322.795 368.52C328.217 371.792 336.474 372.309 342.799 370.074L344.369 353.517Z" fill="#CD995B"/>
<path d="M340.703 356.54C336.696 354.718 330.979 354.909 327.332 357.11C323.337 359.521 323.337 363.428 327.332 365.839C330.692 367.867 335.809 368.187 339.73 366.802L340.703 356.54Z" fill="black"/>
<path d="M386.309 328.207C381.438 324.306 381.947 318.74 387.833 315.188C394.279 311.298 404.725 311.298 411.171 315.188C416.594 318.46 417.45 323.443 413.746 327.26L386.309 328.207Z" fill="#CD995B"/>
<path d="M391.19 325.502C388.171 323.085 388.486 319.635 392.134 317.434C396.129 315.023 402.604 315.023 406.598 317.434C409.959 319.462 410.49 322.55 408.194 324.915L391.19 325.502Z" fill="black"/>
<path d="M431.898 381.142C441.525 375.333 459.987 363.828 456.639 350.16C455.356 344.926 450.879 339.38 441.488 333.712C407.555 313.235 374.65 323.144 355.22 334.869C335.79 346.595 318.911 366.175 353.303 386.929C362.476 392.465 371.459 395.17 379.947 396.017C402.864 398.294 422.183 387.005 431.898 381.142Z" fill="#CD995B"/>
<path d="M403.449 363.641C407.844 360.602 408.17 354.748 404.067 352.272C399.963 349.795 393.988 351.17 387.887 354.851L387.761 354.927C381.655 358.613 379.228 362.129 383.48 364.695C387.733 367.261 397.284 366.981 402.321 364.322L403.449 363.641Z" fill="black"/>
<path d="M369.949 366.851C372.296 365.434 372.046 362.986 369.39 361.383C366.734 359.78 362.678 359.629 360.33 361.046C357.982 362.463 358.232 364.911 360.888 366.514C363.545 368.116 367.601 368.267 369.949 366.851Z" fill="black"/>
<path d="M407.486 344.198C409.834 342.782 409.583 340.334 406.927 338.731C404.271 337.128 400.215 336.977 397.867 338.394C395.519 339.81 395.769 342.258 398.426 343.861C401.082 345.464 405.138 345.615 407.486 344.198Z" fill="black"/>
<path d="M408.894 374.348C408.176 374.782 407.371 375.184 406.5 375.536C404.175 376.475 401.74 376.939 399.637 376.838C399.276 376.821 399.008 376.631 399.036 376.414C399.063 376.196 399.378 376.033 399.739 376.05C401.518 376.134 403.717 375.707 405.768 374.877C407.787 374.061 409.427 372.965 410.26 371.87C410.932 370.99 411.376 369.721 409.672 368.693L401.193 363.576C400.939 363.422 400.939 363.171 401.193 363.017C401.448 362.863 401.865 362.863 402.119 363.017L410.598 368.134C412.348 369.19 412.649 370.635 411.455 372.2C410.885 372.946 409.996 373.683 408.894 374.348Z" fill="black"/>
<path d="M419.984 367.657C418.882 368.322 417.659 368.858 416.427 369.199C413.83 369.923 411.44 369.739 409.69 368.682L401.211 363.566C400.956 363.412 400.956 363.161 401.211 363.007C401.466 362.853 401.883 362.853 402.137 363.007L410.616 368.124C412.325 369.155 414.418 368.886 415.881 368.478C417.696 367.975 419.511 366.986 420.863 365.768C422.239 364.53 422.947 363.203 422.808 362.129C422.78 361.912 423.049 361.722 423.41 361.705C423.771 361.688 424.086 361.85 424.114 362.068C424.276 363.334 423.512 364.807 421.956 366.209C421.364 366.74 420.697 367.227 419.984 367.657Z" fill="black"/>
<g filter="url(#filter1_f_31540_12242)">
<g filter="url(#filter2_f_31540_12242)">
<path d="M344.371 359.434C337.907 356.494 328.682 356.801 322.797 360.353C316.351 364.243 316.351 370.547 322.797 374.437C328.219 377.709 336.476 378.226 342.801 375.991L344.371 359.434Z" fill="#BA884D"/>
</g>
<g filter="url(#filter3_f_31540_12242)">
<path d="M340.705 362.457C336.698 360.635 330.981 360.826 327.334 363.027C323.339 365.438 323.339 369.345 327.334 371.756C330.694 373.784 335.811 374.104 339.732 372.719L340.705 362.457Z" fill="black"/>
</g>
<g filter="url(#filter4_f_31540_12242)">
<path d="M386.31 334.124C381.439 330.223 381.948 324.657 387.834 321.105C394.28 317.215 404.726 317.215 411.172 321.105C416.595 324.377 417.451 329.36 413.747 333.177L386.31 334.124Z" fill="#BA884D"/>
</g>
<g filter="url(#filter5_f_31540_12242)">
<path d="M391.192 331.419C388.173 329.002 388.488 325.552 392.136 323.35C396.131 320.94 402.606 320.94 406.6 323.35C409.961 325.378 410.492 328.466 408.196 330.832L391.192 331.419Z" fill="black"/>
</g>
<g filter="url(#filter6_f_31540_12242)">
<path d="M431.899 387.059C441.526 381.249 459.988 369.745 456.64 356.077C455.357 350.843 450.88 345.296 441.489 339.629C407.556 319.152 374.651 329.061 355.221 340.786C335.791 352.511 318.912 372.092 353.304 392.846C362.477 398.382 371.46 401.087 379.948 401.934C402.865 404.211 422.184 392.922 431.899 387.059Z" fill="#BA884D"/>
</g>
<g filter="url(#filter7_f_31540_12242)">
<path d="M403.45 369.558C407.845 366.519 408.171 360.665 404.068 358.188C399.964 355.712 393.989 357.087 387.888 360.768L387.762 360.844C381.656 364.529 379.229 368.045 383.481 370.611C387.734 373.178 397.285 372.898 402.322 370.238L403.45 369.558Z" fill="black"/>
</g>
<g filter="url(#filter8_f_31540_12242)">
<path d="M369.95 372.768C372.297 371.351 372.047 368.903 369.391 367.3C366.735 365.697 362.679 365.546 360.331 366.963C357.983 368.38 358.233 370.828 360.889 372.431C363.546 374.033 367.602 374.184 369.95 372.768Z" fill="black"/>
</g>
<g filter="url(#filter9_f_31540_12242)">
<path d="M407.487 350.115C409.834 348.699 409.584 346.251 406.928 344.648C404.272 343.045 400.216 342.894 397.868 344.311C395.52 345.727 395.77 348.175 398.427 349.778C401.083 351.381 405.139 351.532 407.487 350.115Z" fill="black"/>
</g>
<path d="M408.895 380.265C408.177 380.698 407.372 381.101 406.501 381.453C404.176 382.392 401.741 382.856 399.638 382.755C399.277 382.738 399.009 382.548 399.036 382.33C399.064 382.112 399.379 381.95 399.74 381.967C401.518 382.051 403.718 381.623 405.769 380.793C407.788 379.977 409.428 378.882 410.261 377.787C410.933 376.906 411.377 375.638 409.673 374.609L401.194 369.493C400.94 369.339 400.94 369.088 401.194 368.934C401.449 368.78 401.866 368.78 402.12 368.934L410.599 374.05C412.349 375.107 412.65 376.551 411.456 378.116C410.886 378.862 409.997 379.6 408.895 380.265Z" fill="black"/>
<path d="M419.984 373.574C418.882 374.239 417.659 374.775 416.427 375.116C413.83 375.84 411.44 375.656 409.69 374.599L401.211 369.483C400.956 369.329 400.956 369.078 401.211 368.924C401.466 368.77 401.883 368.77 402.137 368.924L410.616 374.041C412.325 375.072 414.418 374.803 415.881 374.395C417.696 373.892 419.511 372.903 420.863 371.685C422.239 370.447 422.947 369.12 422.808 368.046C422.78 367.829 423.049 367.638 423.41 367.622C423.771 367.605 424.086 367.767 424.114 367.985C424.276 369.251 423.512 370.724 421.956 372.126C421.364 372.657 420.697 373.143 419.984 373.574Z" fill="black"/>
<g filter="url(#filter10_f_31540_12242)">
<path d="M346.456 365.35C339.992 362.411 330.767 362.718 324.882 366.27C318.436 370.16 318.436 376.464 324.882 380.354C330.304 383.626 338.561 384.143 344.886 381.907L346.456 365.35Z" fill="#CD995B"/>
<path d="M342.79 368.374C338.783 366.552 333.066 366.742 329.419 368.944C325.424 371.354 325.424 375.262 329.419 377.672C332.779 379.7 337.896 380.021 341.817 378.635L342.79 368.374Z" fill="black"/>
<path d="M388.396 340.041C383.525 336.14 384.034 330.574 389.92 327.022C396.366 323.132 406.812 323.132 413.258 327.022C418.681 330.294 419.537 335.277 415.833 339.094L388.396 340.041Z" fill="#CD995B"/>
<path d="M393.277 337.336C390.258 334.918 390.573 331.469 394.221 329.267C398.216 326.857 404.69 326.857 408.685 329.267C412.046 331.295 412.577 334.383 410.281 336.749L393.277 337.336Z" fill="black"/>
<path d="M433.985 392.976C443.612 387.166 462.074 375.662 458.726 361.994C457.443 356.76 452.966 351.213 443.575 345.546C409.642 325.069 376.737 334.978 357.306 346.703C337.876 358.428 320.998 378.009 355.389 398.763C364.563 404.299 373.546 407.004 382.034 407.851C404.951 410.128 424.27 398.839 433.985 392.976Z" fill="#CD995B"/>
<path d="M405.536 375.475C409.931 372.436 410.257 366.582 406.154 364.105C402.05 361.629 396.075 363.003 389.974 366.685L389.848 366.761C383.742 370.446 381.315 373.962 385.567 376.528C389.82 379.095 399.371 378.815 404.408 376.155L405.536 375.475Z" fill="black"/>
<path d="M372.036 378.685C374.383 377.268 374.133 374.82 371.477 373.217C368.821 371.614 364.765 371.463 362.417 372.88C360.069 374.297 360.319 376.745 362.975 378.348C365.631 379.95 369.688 380.101 372.036 378.685Z" fill="black"/>
<path d="M409.573 356.032C411.92 354.615 411.67 352.167 409.014 350.564C406.358 348.962 402.302 348.811 399.954 350.227C397.606 351.644 397.856 354.092 400.512 355.695C403.169 357.298 407.225 357.449 409.573 356.032Z" fill="black"/>
<path d="M410.981 386.182C410.263 386.615 409.458 387.018 408.587 387.37C406.262 388.309 403.827 388.773 401.724 388.672C401.363 388.655 401.095 388.465 401.122 388.247C401.15 388.029 401.465 387.867 401.826 387.884C403.604 387.968 405.804 387.54 407.855 386.71C409.874 385.894 411.514 384.799 412.347 383.704C413.018 382.823 413.463 381.555 411.759 380.526L403.28 375.41C403.026 375.256 403.026 375.005 403.28 374.851C403.535 374.697 403.952 374.697 404.206 374.851L412.685 379.967C414.435 381.024 414.736 382.468 413.542 384.033C412.972 384.779 412.083 385.517 410.981 386.182Z" fill="black"/>
<path d="M422.07 379.491C420.967 380.156 419.745 380.692 418.513 381.033C415.915 381.757 413.526 381.572 411.776 380.516L403.297 375.4C403.042 375.246 403.042 374.994 403.297 374.841C403.552 374.687 403.968 374.687 404.223 374.841L412.702 379.957C414.41 380.988 416.504 380.72 417.967 380.312C419.782 379.809 421.597 378.82 422.949 377.602C424.325 376.364 425.033 375.036 424.894 373.963C424.866 373.745 425.135 373.555 425.496 373.538C425.857 373.522 426.172 373.684 426.2 373.902C426.362 375.168 425.598 376.64 424.042 378.043C423.449 378.574 422.783 379.06 422.07 379.491Z" fill="black"/>
</g>
</g>
<path d="M344.369 353.517C337.905 350.577 328.681 350.884 322.795 354.436C316.349 358.326 316.349 364.63 322.795 368.52C328.217 371.792 336.474 372.309 342.799 370.074L344.369 353.517Z" fill="#CD995B"/>
<path d="M340.703 356.54C336.696 354.718 330.979 354.909 327.332 357.11C323.337 359.521 323.337 363.428 327.332 365.839C330.692 367.867 335.809 368.187 339.73 366.802L340.703 356.54Z" fill="black"/>
<path d="M386.309 328.207C381.438 324.306 381.947 318.74 387.833 315.188C394.279 311.298 404.725 311.298 411.171 315.188C416.594 318.46 417.45 323.443 413.746 327.26L386.309 328.207Z" fill="#CD995B"/>
<path d="M391.19 325.502C388.171 323.085 388.486 319.635 392.134 317.434C396.129 315.023 402.604 315.023 406.598 317.434C409.959 319.462 410.49 322.55 408.194 324.915L391.19 325.502Z" fill="black"/>
<path d="M431.898 381.142C441.525 375.333 459.987 363.828 456.639 350.16C455.356 344.926 450.879 339.38 441.488 333.712C407.555 313.235 374.65 323.144 355.22 334.869C335.79 346.595 318.911 366.175 353.303 386.929C362.476 392.465 371.459 395.17 379.947 396.017C402.864 398.294 422.183 387.005 431.898 381.142Z" fill="#CD995B"/>
<path d="M403.449 363.641C407.844 360.602 408.17 354.748 404.067 352.272C399.963 349.795 393.988 351.17 387.887 354.851L387.761 354.927C381.655 358.613 379.228 362.129 383.48 364.695C387.733 367.261 397.284 366.981 402.321 364.322L403.449 363.641Z" fill="black"/>
<path d="M369.949 366.851C372.296 365.434 372.046 362.986 369.39 361.383C366.734 359.78 362.678 359.629 360.33 361.046C357.982 362.463 358.232 364.911 360.888 366.514C363.545 368.116 367.601 368.267 369.949 366.851Z" fill="black"/>
<path d="M407.486 344.198C409.834 342.782 409.583 340.334 406.927 338.731C404.271 337.128 400.215 336.977 397.867 338.394C395.519 339.81 395.769 342.258 398.426 343.861C401.082 345.464 405.138 345.615 407.486 344.198Z" fill="black"/>
<path d="M408.894 374.348C408.176 374.782 407.371 375.184 406.5 375.536C404.175 376.475 401.74 376.939 399.637 376.838C399.276 376.821 399.008 376.631 399.036 376.414C399.063 376.196 399.378 376.033 399.739 376.05C401.518 376.134 403.717 375.707 405.768 374.877C407.787 374.061 409.427 372.965 410.26 371.87C410.932 370.99 411.376 369.721 409.672 368.693L401.193 363.576C400.939 363.422 400.939 363.171 401.193 363.017C401.448 362.863 401.865 362.863 402.119 363.017L410.598 368.134C412.348 369.19 412.649 370.635 411.455 372.2C410.885 372.946 409.996 373.683 408.894 374.348Z" fill="black"/>
<path d="M419.984 367.657C418.882 368.322 417.659 368.858 416.427 369.199C413.83 369.923 411.44 369.739 409.69 368.682L401.211 363.566C400.956 363.412 400.956 363.161 401.211 363.007C401.466 362.853 401.883 362.853 402.137 363.007L410.616 368.124C412.325 369.155 414.418 368.886 415.881 368.478C417.696 367.975 419.511 366.986 420.863 365.768C422.239 364.53 422.947 363.203 422.808 362.129C422.78 361.912 423.049 361.722 423.41 361.705C423.771 361.688 424.086 361.85 424.114 362.068C424.276 363.334 423.512 364.807 421.956 366.209C421.364 366.74 420.697 367.227 419.984 367.657Z" fill="black"/>
<mask id="path-42-outside-1_31540_12242" maskUnits="userSpaceOnUse" x="314.681" y="305.146" width="145" height="90" fill="black">
<rect fill="white" x="314.681" y="305.146" width="145" height="90"/>
<path d="M387.553 311.063C393.999 307.174 404.445 307.174 410.891 311.063C414.427 313.197 416.021 316.058 415.675 318.849C415.654 319.023 415.614 319.192 415.561 319.356C423.903 321.095 432.522 324.346 441.208 329.588C450.599 335.255 455.077 340.801 456.36 346.035C459.708 359.702 441.246 371.207 431.618 377.016C421.903 382.879 402.584 394.169 379.667 391.891C371.179 391.045 362.196 388.34 353.023 382.805C344.243 377.506 338.806 372.283 335.899 367.249C335.741 367.262 335.581 367.275 335.418 367.282C330.793 367.491 326.051 366.528 322.515 364.394C316.069 360.505 316.069 354.201 322.515 350.311C326.293 348.032 331.446 347.088 336.363 347.482C340.296 340.986 347.427 335.278 354.94 330.744C362.477 326.196 372.041 321.922 382.907 319.588C382.155 316.571 383.704 313.386 387.553 311.063Z"/>
</mask>
<path d="M387.553 311.063C393.999 307.174 404.445 307.174 410.891 311.063C414.427 313.197 416.021 316.058 415.675 318.849C415.654 319.023 415.614 319.192 415.561 319.356C423.903 321.095 432.522 324.346 441.208 329.588C450.599 335.255 455.077 340.801 456.36 346.035C459.708 359.702 441.246 371.207 431.618 377.016C421.903 382.879 402.584 394.169 379.667 391.891C371.179 391.045 362.196 388.34 353.023 382.805C344.243 377.506 338.806 372.283 335.899 367.249C335.741 367.262 335.581 367.275 335.418 367.282C330.793 367.491 326.051 366.528 322.515 364.394C316.069 360.505 316.069 354.201 322.515 350.311C326.293 348.032 331.446 347.088 336.363 347.482C340.296 340.986 347.427 335.278 354.94 330.744C362.477 326.196 372.041 321.922 382.907 319.588C382.155 316.571 383.704 313.386 387.553 311.063Z" fill="white" fill-opacity="0.15"/>
<path d="M387.553 311.063C393.999 307.174 404.445 307.174 410.891 311.063C414.427 313.197 416.021 316.058 415.675 318.849C415.654 319.023 415.614 319.192 415.561 319.356C423.903 321.095 432.522 324.346 441.208 329.588C450.599 335.255 455.077 340.801 456.36 346.035C459.708 359.702 441.246 371.207 431.618 377.016C421.903 382.879 402.584 394.169 379.667 391.891C371.179 391.045 362.196 388.34 353.023 382.805C344.243 377.506 338.806 372.283 335.899 367.249C335.741 367.262 335.581 367.275 335.418 367.282C330.793 367.491 326.051 366.528 322.515 364.394C316.069 360.505 316.069 354.201 322.515 350.311C326.293 348.032 331.446 347.088 336.363 347.482C340.296 340.986 347.427 335.278 354.94 330.744C362.477 326.196 372.041 321.922 382.907 319.588C382.155 316.571 383.704 313.386 387.553 311.063Z" fill="url(#paint0_linear_31540_12242)"/>
<path d="M387.553 311.063L386.171 308.773L386.171 308.773L387.553 311.063ZM410.891 311.063L412.273 308.773L412.273 308.773L410.891 311.063ZM415.675 318.849L418.33 319.179L418.33 319.179L415.675 318.849ZM415.561 319.356L413.017 318.529C412.782 319.252 412.865 320.041 413.247 320.698C413.628 321.356 414.271 321.82 415.015 321.975L415.561 319.356ZM441.208 329.588L442.59 327.297L442.59 327.297L441.208 329.588ZM456.36 346.035L458.958 345.399L458.958 345.398L456.36 346.035ZM431.618 377.016L433.001 379.307V379.307L431.618 377.016ZM379.667 391.891L379.402 394.553L379.403 394.553L379.667 391.891ZM353.023 382.805L351.641 385.095L351.641 385.095L353.023 382.805ZM335.899 367.249L338.215 365.911C337.696 365.012 336.704 364.495 335.669 364.584L335.899 367.249ZM335.418 367.282L335.539 369.954L335.539 369.954L335.418 367.282ZM322.515 364.394L321.133 366.685L321.133 366.685L322.515 364.394ZM322.515 350.311L321.133 348.021L321.133 348.021L322.515 350.311ZM336.363 347.482L336.149 350.149C337.158 350.23 338.126 349.734 338.651 348.868L336.363 347.482ZM354.94 330.744L353.558 328.454V328.454L354.94 330.744ZM382.907 319.588L383.468 322.203C384.177 322.051 384.793 321.618 385.176 321.003C385.56 320.388 385.677 319.644 385.502 318.941L382.907 319.588ZM387.553 311.063L388.935 313.354C391.647 311.717 395.363 310.821 399.222 310.821C403.081 310.821 406.797 311.717 409.509 313.354L410.891 311.063L412.273 308.773C408.539 306.52 403.809 305.471 399.222 305.471C394.635 305.471 389.905 306.52 386.171 308.773L387.553 311.063ZM410.891 311.063L409.509 313.354C412.48 315.147 413.194 317.121 413.02 318.52L415.675 318.849L418.33 319.179C418.848 314.996 416.374 311.248 412.273 308.773L410.891 311.063ZM415.675 318.849L413.02 318.52C413.021 318.515 413.022 318.513 413.021 318.514C413.021 318.515 413.02 318.52 413.017 318.529L415.561 319.356L418.105 320.183C418.206 319.873 418.285 319.538 418.33 319.179L415.675 318.849ZM415.561 319.356L415.015 321.975C423.06 323.652 431.396 326.791 439.826 331.878L441.208 329.588L442.59 327.297C433.648 321.901 424.747 318.538 416.107 316.737L415.561 319.356ZM441.208 329.588L439.826 331.878C448.955 337.387 452.725 342.443 453.761 346.672L456.36 346.035L458.958 345.398C457.429 339.16 452.242 333.122 442.59 327.297L441.208 329.588ZM456.36 346.035L453.761 346.671C455.083 352.069 452.207 357.424 446.979 362.565C441.832 367.627 435.067 371.811 430.236 374.726L431.618 377.016L433.001 379.307C437.797 376.413 445.077 371.939 450.73 366.38C456.304 360.899 460.984 353.669 458.958 345.399L456.36 346.035ZM431.618 377.016L430.236 374.726C420.517 380.591 401.884 391.411 379.932 389.229L379.667 391.891L379.403 394.553C403.284 396.927 423.29 385.167 433.001 379.307L431.618 377.016ZM379.667 391.891L379.933 389.23C371.834 388.422 363.233 385.842 354.405 380.514L353.023 382.805L351.641 385.095C361.159 390.839 370.524 393.668 379.402 394.553L379.667 391.891ZM353.023 382.805L354.405 380.514C345.836 375.343 340.813 370.408 338.215 365.911L335.899 367.249L333.582 368.587C336.8 374.158 342.649 379.669 351.641 385.095L353.023 382.805ZM335.899 367.249L335.669 364.584C335.526 364.596 335.407 364.605 335.297 364.61L335.418 367.282L335.539 369.954C335.755 369.945 335.956 369.929 336.128 369.914L335.899 367.249ZM335.418 367.282L335.298 364.61C331.066 364.801 326.878 363.903 323.897 362.104L322.515 364.394L321.133 366.685C325.224 369.154 330.52 370.181 335.539 369.954L335.418 367.282ZM322.515 364.394L323.897 362.104C321.185 360.467 320.356 358.667 320.356 357.353C320.356 356.038 321.185 354.238 323.897 352.602L322.515 350.311L321.133 348.021C317.399 350.274 315.006 353.571 315.006 357.353C315.006 361.135 317.399 364.432 321.133 366.685L322.515 364.394ZM322.515 350.311L323.897 352.602C327.088 350.676 331.651 349.788 336.149 350.149L336.363 347.482L336.577 344.816C331.242 344.388 325.498 345.387 321.133 348.021L322.515 350.311ZM336.363 347.482L338.651 348.868C342.25 342.924 348.941 337.488 356.322 333.034L354.94 330.744L353.558 328.454C345.913 333.067 338.342 339.049 334.074 346.097L336.363 347.482ZM354.94 330.744L356.322 333.034C363.646 328.614 372.936 324.466 383.468 322.203L382.907 319.588L382.345 316.972C371.146 319.378 361.307 323.777 353.558 328.454L354.94 330.744ZM382.907 319.588L385.502 318.941C385.129 317.444 385.709 315.301 388.935 313.354L387.553 311.063L386.171 308.773C381.699 311.472 379.181 315.697 380.311 320.234L382.907 319.588Z" fill="url(#paint1_linear_31540_12242)" mask="url(#path-42-outside-1_31540_12242)"/>
<defs>
<filter id="filter0_f_31540_12242" x="0.000396729" y="-9.15527e-05" width="816.869" height="735.592" filterUnits="userSpaceOnUse" color-interpolation-filters="sRGB">
<feFlood flood-opacity="0" result="BackgroundImageFix"/>
<feBlend mode="normal" in="SourceGraphic" in2="BackgroundImageFix" result="shape"/>
<feGaussianBlur stdDeviation="155.563" result="effect1_foregroundBlur_31540_12242"/>
</filter>
<filter id="filter1_f_31540_12242" x="314.111" y="314.336" width="148.868" height="97.6662" filterUnits="userSpaceOnUse" color-interpolation-filters="sRGB">
<feFlood flood-opacity="0" result="BackgroundImageFix"/>
<feBlend mode="normal" in="SourceGraphic" in2="BackgroundImageFix" result="shape"/>
<feGaussianBlur stdDeviation="1.92608" result="effect1_foregroundBlur_31540_12242"/>
</filter>
<filter id="filter2_f_31540_12242" x="315.662" y="355.137" width="31.0094" height="24.5162" filterUnits="userSpaceOnUse" color-interpolation-filters="sRGB">
<feFlood flood-opacity="0" result="BackgroundImageFix"/>
<feBlend mode="normal" in="SourceGraphic" in2="BackgroundImageFix" result="shape"/>
<feGaussianBlur stdDeviation="1.1503" result="effect1_foregroundBlur_31540_12242"/>
</filter>
<filter id="filter3_f_31540_12242" x="322.037" y="358.919" width="20.9674" height="16.944" filterUnits="userSpaceOnUse" color-interpolation-filters="sRGB">
<feFlood flood-opacity="0" result="BackgroundImageFix"/>
<feBlend mode="normal" in="SourceGraphic" in2="BackgroundImageFix" result="shape"/>
<feGaussianBlur stdDeviation="1.1503" result="effect1_foregroundBlur_31540_12242"/>
</filter>
<filter id="filter4_f_31540_12242" x="380.701" y="315.887" width="37.6022" height="20.5377" filterUnits="userSpaceOnUse" color-interpolation-filters="sRGB">
<feFlood flood-opacity="0" result="BackgroundImageFix"/>
<feBlend mode="normal" in="SourceGraphic" in2="BackgroundImageFix" result="shape"/>
<feGaussianBlur stdDeviation="1.1503" result="effect1_foregroundBlur_31540_12242"/>
</filter>
<filter id="filter5_f_31540_12242" x="386.841" y="319.242" width="25.0543" height="14.4781" filterUnits="userSpaceOnUse" color-interpolation-filters="sRGB">
<feFlood flood-opacity="0" result="BackgroundImageFix"/>
<feBlend mode="normal" in="SourceGraphic" in2="BackgroundImageFix" result="shape"/>
<feGaussianBlur stdDeviation="1.1503" result="effect1_foregroundBlur_31540_12242"/>
</filter>
<filter id="filter6_f_31540_12242" x="331.193" y="325.491" width="128.149" height="79.0423" filterUnits="userSpaceOnUse" color-interpolation-filters="sRGB">
<feFlood flood-opacity="0" result="BackgroundImageFix"/>
<feBlend mode="normal" in="SourceGraphic" in2="BackgroundImageFix" result="shape"/>
<feGaussianBlur stdDeviation="1.1503" result="effect1_foregroundBlur_31540_12242"/>
</filter>
<filter id="filter7_f_31540_12242" x="379.041" y="354.636" width="30.2154" height="20.0563" filterUnits="userSpaceOnUse" color-interpolation-filters="sRGB">
<feFlood flood-opacity="0" result="BackgroundImageFix"/>
<feBlend mode="normal" in="SourceGraphic" in2="BackgroundImageFix" result="shape"/>
<feGaussianBlur stdDeviation="1.1503" result="effect1_foregroundBlur_31540_12242"/>
</filter>
<filter id="filter8_f_31540_12242" x="356.421" y="363.691" width="17.4391" height="12.3483" filterUnits="userSpaceOnUse" color-interpolation-filters="sRGB">
<feFlood flood-opacity="0" result="BackgroundImageFix"/>
<feBlend mode="normal" in="SourceGraphic" in2="BackgroundImageFix" result="shape"/>
<feGaussianBlur stdDeviation="1.1503" result="effect1_foregroundBlur_31540_12242"/>
</filter>
<filter id="filter9_f_31540_12242" x="393.958" y="341.039" width="17.4391" height="12.3483" filterUnits="userSpaceOnUse" color-interpolation-filters="sRGB">
<feFlood flood-opacity="0" result="BackgroundImageFix"/>
<feBlend mode="normal" in="SourceGraphic" in2="BackgroundImageFix" result="shape"/>
<feGaussianBlur stdDeviation="1.1503" result="effect1_foregroundBlur_31540_12242"/>
</filter>
<filter id="filter10_f_31540_12242" x="266.546" y="270.602" width="246.083" height="191.049" filterUnits="userSpaceOnUse" color-interpolation-filters="sRGB">
<feFlood flood-opacity="0" result="BackgroundImageFix"/>
<feBlend mode="normal" in="SourceGraphic" in2="BackgroundImageFix" result="shape"/>
<feGaussianBlur stdDeviation="26.751" result="effect1_foregroundBlur_31540_12242"/>
</filter>
<linearGradient id="paint0_linear_31540_12242" x1="392.456" y1="348.318" x2="422.442" y2="399.696" gradientUnits="userSpaceOnUse">
<stop stop-color="white" stop-opacity="0.2"/>
<stop offset="1" stop-color="#BB8950"/>
</linearGradient>
<linearGradient id="paint1_linear_31540_12242" x1="322.75" y1="342.014" x2="384.518" y2="418.516" gradientUnits="userSpaceOnUse">
<stop stop-color="#FFDFBA"/>
<stop offset="1" stop-color="#CD995B"/>
</linearGradient>
</defs>
</svg>
